<?xml version="1.0" encoding="utf-8"?>
<!-- Generator: Adobe Illustrator 19.2.0, SVG Export Plug-In . SVG Version: 6.00 Build 0)  -->
<svg version="1.1" xmlns="http://www.w3.org/2000/svg" xmlns:xlink="http://www.w3.org/1999/xlink" x="0px" y="0px"
	 viewBox="0 0 115 115" style="enable-background:new 0 0 115 115;" xml:space="preserve">
<style type="text/css">
	.st0{fill:#FFFFFF;}
	.st1{clip-path:url(#SVGID_2_);fill:none;stroke:#000000;stroke-width:2;stroke-miterlimit:10;}
	.st2{clip-path:url(#SVGID_7_);}
	.st3{clip-path:url(#SVGID_8_);fill:#303030;}
	.st4{clip-path:url(#SVGID_13_);}
	.st5{clip-path:url(#SVGID_14_);fill:#303030;}
	.st6{clip-path:url(#SVGID_19_);}
	.st7{clip-path:url(#SVGID_20_);fill:#303030;}
	.st8{clip-path:url(#SVGID_25_);}
	.st9{clip-path:url(#SVGID_26_);fill:#E7290A;}
	.st10{clip-path:url(#SVGID_31_);}
	.st11{clip-path:url(#SVGID_32_);fill:#E7290A;}
</style>
<g id="Layer_2">
	<polygon class="st0" points="4,1.6 2.3,2.4 1.4,4.4 1.5,110.5 2,112 3.4,113.2 5.6,113.5 109.8,113.6 111.2,113.1 112.9,112.1 
		113.6,110.3 113.6,4.5 112.5,2.4 110.5,1.6 	"/>
</g>
<g id="Layer_1">
	<g>
		<g>
			<defs>
				<path id="SVGID_1_" d="M1,5c0-2.2,1.8-4,4-4h105c2.2,0,4,1.8,4,4v105c0,2.2-1.8,4-4,4H5c-2.2,0-4-1.8-4-4V5L1,5z"/>
			</defs>
			<clipPath id="SVGID_2_">
				<use xlink:href="#SVGID_1_"  style="overflow:visible;"/>
			</clipPath>
			<path class="st1" d="M1,5c0-2.2,1.8-4,4-4h105c2.2,0,4,1.8,4,4v105c0,2.2-1.8,4-4,4H5c-2.2,0-4-1.8-4-4V5L1,5z"/>
		</g>
	</g>
	<g>
		<g>
			<defs>
				<rect id="SVGID_3_" x="-3" y="-1" width="121" height="121"/>
			</defs>
			<clipPath id="SVGID_4_">
				<use xlink:href="#SVGID_3_"  style="overflow:visible;"/>
			</clipPath>
		</g>
		<g>
			<defs>
				<rect id="SVGID_5_" x="-3" y="-1" width="121" height="121"/>
			</defs>
			<defs>
				<path id="SVGID_6_" d="M77.9,32.2c0,0-10.7,0-10.9,0c-0.2,0-0.9,0.2-0.9,1v47.5c0,0.4,0.3,0.8,0.8,0.8h5c0.4,0,0.8-0.4,0.8-0.8
					V63H78c2.8,0,5-2.4,5-5.3V37.5C82.9,34.6,80.6,32.2,77.9,32.2L77.9,32.2L77.9,32.2z M76.8,55.9c0,0.8-0.7,1.5-1.5,1.5H73v-20
					h2.3c0.8,0,1.4,0.7,1.4,1.5L76.8,55.9L76.8,55.9L76.8,55.9z"/>
			</defs>
			<clipPath id="SVGID_7_">
				<use xlink:href="#SVGID_5_"  style="overflow:visible;"/>
			</clipPath>
			<clipPath id="SVGID_8_" class="st2">
				<use xlink:href="#SVGID_6_"  style="overflow:visible;"/>
			</clipPath>
			<rect x="61.1" y="27.2" class="st3" width="26.8" height="59.3"/>
		</g>
	</g>
	<g>
		<g>
			<defs>
				<rect id="SVGID_9_" x="-3" y="-1" width="121" height="121"/>
			</defs>
			<clipPath id="SVGID_10_">
				<use xlink:href="#SVGID_9_"  style="overflow:visible;"/>
			</clipPath>
		</g>
		<g>
			<defs>
				<rect id="SVGID_11_" x="-3" y="-1" width="121" height="121"/>
			</defs>
			<defs>
				<path id="SVGID_12_" d="M38.3,47.2v-6.8c0-1.2,0.9-2.1,2-2.1s2,1,2,2.2V48c0,0.4,0.3,0.7,0.8,0.7h5.1c0.4,0,0.7-0.3,0.8-0.7
					v-8.8c0-3.9-3-7-6.7-7h-3.6c-3.7,0-6.7,3.1-6.7,7v10.6c0,3.4,1.3,4.1,4.1,7l2.3,2.4c2.8,3,4,4.1,4,7.4v6.8
					c0,1.2-0.8,2.3-1.9,2.3c-1.1,0-2.1-1-2.1-2.2v-7.4c0,0-0.1-0.6-0.7-0.6h-5c-0.4,0-0.7,0.3-0.7,0.6v8.7c0,3.9,3,7,6.7,7h3.6
					c3.7,0,6.7-3.1,6.7-7V64.2c0-3.4-1.4-4.8-4.3-7.7l-2.3-2.4C39.1,50.8,38.3,50.4,38.3,47.2"/>
			</defs>
			<clipPath id="SVGID_13_">
				<use xlink:href="#SVGID_11_"  style="overflow:visible;"/>
			</clipPath>
			<clipPath id="SVGID_14_" class="st4">
				<use xlink:href="#SVGID_12_"  style="overflow:visible;"/>
			</clipPath>
			<rect x="26.8" y="27.2" class="st5" width="27" height="59.7"/>
		</g>
	</g>
	<g>
		<g>
			<defs>
				<rect id="SVGID_15_" x="-3" y="-1" width="121" height="121"/>
			</defs>
			<clipPath id="SVGID_16_">
				<use xlink:href="#SVGID_15_"  style="overflow:visible;"/>
			</clipPath>
		</g>
		<g>
			<defs>
				<rect id="SVGID_17_" x="-3" y="-1" width="121" height="121"/>
			</defs>
			<defs>
				<path id="SVGID_18_" d="M61.8,77.4c1.3-2,1.7-4.3,1.8-7l0,0c0-0.2-0.2-0.4-0.3-0.4h-2.4c-0.2,0-0.3,0.2-0.3,0.4l0,0
					c-0.1,1.1-0.2,2.1-0.6,3.1l-2-4.1c1.4-1.7,2.7-3.2,2.7-6.1c0-3.5-1.9-5.3-4.1-5.3c-2.3,0-4.2,1.8-4.2,5.5c0,1.8,0.9,3.9,1.5,5.2
					c-1.8,2-3,3.5-3,7c0,3,1.2,6.5,4.7,6.5c1.6,0,2.7-0.7,3.8-1.9l0.7,1.5c0.1,0.2,0.2,0.3,0.4,0.3h2.8c0.2,0,0.5,0,0.6-0.3
					L61.8,77.4L61.8,77.4L61.8,77.4z M56.4,61.1c0.7,0,1.3,0.7,1.3,1.8c0,1.4-0.6,2.3-1.3,3.2c-0.5-1-1.1-2.1-1.1-3.2
					C55.2,61.7,55.9,61.1,56.4,61.1L56.4,61.1L56.4,61.1z M56.2,78.1c-1.1,0-1.9-1.4-1.9-2.9c0-1.1,0.4-2.1,1.3-3.1l2.3,4.8
					C57.4,77.6,56.8,78.1,56.2,78.1L56.2,78.1L56.2,78.1z"/>
			</defs>
			<clipPath id="SVGID_19_">
				<use xlink:href="#SVGID_17_"  style="overflow:visible;"/>
			</clipPath>
			<clipPath id="SVGID_20_" class="st6">
				<use xlink:href="#SVGID_18_"  style="overflow:visible;"/>
			</clipPath>
			<rect x="45.9" y="53" class="st7" width="23" height="34.2"/>
		</g>
	</g>
	<g>
		<g>
			<defs>
				<rect id="SVGID_21_" x="-3" y="-1" width="121" height="121"/>
			</defs>
			<clipPath id="SVGID_22_">
				<use xlink:href="#SVGID_21_"  style="overflow:visible;"/>
			</clipPath>
		</g>
		<g>
			<defs>
				<rect id="SVGID_23_" x="-3" y="-1" width="121" height="121"/>
			</defs>
			<defs>
				<path id="SVGID_24_" d="M95.3,55.3c0,1.8-0.4,4.1-0.7,5.8h3.8c0.4-1.7,0.7-4.1,0.7-5.8C99,33,81.7,15,60.4,15v3.9
					C79.6,18.9,95.3,35.1,95.3,55.3L95.3,55.3z"/>
			</defs>
			<clipPath id="SVGID_25_">
				<use xlink:href="#SVGID_23_"  style="overflow:visible;"/>
			</clipPath>
			<clipPath id="SVGID_26_" class="st8">
				<use xlink:href="#SVGID_24_"  style="overflow:visible;"/>
			</clipPath>
			<rect x="55.4" y="10" class="st9" width="48.6" height="56.1"/>
		</g>
	</g>
	<g>
		<g>
			<defs>
				<rect id="SVGID_27_" x="-3" y="-1" width="121" height="121"/>
			</defs>
			<clipPath id="SVGID_28_">
				<use xlink:href="#SVGID_27_"  style="overflow:visible;"/>
			</clipPath>
		</g>
		<g>
			<defs>
				<rect id="SVGID_29_" x="-3" y="-1" width="121" height="121"/>
			</defs>
			<defs>
				<path id="SVGID_30_" d="M19.4,59.4c0-1.8,0.1-3.5,0.4-5.2h-3.4H16c-0.2,1.7-0.3,3.4-0.3,5.2c0,22.2,17.3,40.3,38.6,40.3v-3.9
					C35,95.8,19.4,79.5,19.4,59.4L19.4,59.4z"/>
			</defs>
			<clipPath id="SVGID_31_">
				<use xlink:href="#SVGID_29_"  style="overflow:visible;"/>
			</clipPath>
			<clipPath id="SVGID_32_" class="st10">
				<use xlink:href="#SVGID_30_"  style="overflow:visible;"/>
			</clipPath>
			<rect x="10.7" y="49.2" class="st11" width="48.6" height="55.5"/>
		</g>
	</g>
</g>
</svg>
